<svg width="293" height="327" viewBox="0 0 293 327" fill="none" xmlns="http://www.w3.org/2000/svg">
<g filter="url(#filter0_dfn_10865_4024)">
<path d="M92.6784 187.288C98.304 179.198 105.61 172.528 114.028 167.718C117.269 165.867 117.267 160.344 114.025 158.493C105.634 153.703 98.3495 147.059 92.7378 139C85.0073 127.897 80.8261 114.646 80.7617 101.046C80.7617 100.975 80.7481 100.917 80.7481 100.866L80.7607 49.6011C80.7613 47.3916 78.9703 45.6001 76.7608 45.6001H49.5996C47.3905 45.6001 45.5996 47.391 45.5996 49.6001V276.594C45.5996 278.803 47.3905 280.594 49.5996 280.594H76.7607C78.9703 280.594 80.7613 278.802 80.7607 276.593L80.7481 225.328C80.7481 225.278 80.7617 225.221 80.7617 225.148C80.8326 211.587 84.9916 198.373 92.6784 187.288Z" fill="#191717"/>
<path d="M146.057 158.892C161.168 158.778 175.628 152.629 186.317 141.772C197.005 130.916 203.064 116.223 203.186 100.866V55.3798C203.186 51.8011 198.846 50.0234 196.336 52.5735L169.125 80.2119C168.388 80.9601 167.975 81.9681 167.975 83.0181V100.86C168.063 103.84 167.56 106.809 166.498 109.588C165.436 112.368 163.836 114.903 161.792 117.042C159.749 119.182 157.303 120.883 154.601 122.045C151.899 123.206 148.995 123.805 146.061 123.805C143.127 123.805 140.223 123.206 137.52 122.045C134.818 120.883 132.373 119.182 130.329 117.042C128.286 114.903 126.685 112.368 125.623 109.588C124.561 106.809 124.059 103.84 124.146 100.86V82.959C124.146 81.9101 123.734 80.9032 122.999 80.1551L95.8815 52.5657C93.3718 50.0123 89.0288 51.7894 89.0288 55.3696V100.86C89.1152 116.211 95.149 130.91 105.823 141.772C116.497 152.634 130.952 158.785 146.057 158.892Z" fill="#191717"/>
<path d="M146.057 167.3C130.953 167.407 116.498 173.557 105.824 184.418C95.1496 195.279 89.1148 209.976 89.0269 225.327V270.817C89.0269 274.398 93.37 276.175 95.8797 273.621L122.997 246.032C123.732 245.284 124.144 244.277 124.144 243.228V225.327C124.057 222.346 124.559 219.378 125.622 216.599C126.684 213.819 128.284 211.284 130.327 209.144C132.371 207.005 134.816 205.304 137.518 204.142C140.221 202.98 143.125 202.382 146.059 202.382C148.993 202.382 151.897 202.98 154.599 204.142C157.302 205.304 159.747 207.005 161.791 209.144C163.834 211.284 165.434 213.819 166.496 216.599C167.558 219.378 168.061 222.346 167.973 225.327V243.169C167.973 244.219 168.386 245.227 169.123 245.975L196.334 273.615C198.844 276.165 203.184 274.387 203.184 270.809V225.327C203.062 209.969 197.003 195.277 186.315 184.42C175.626 173.564 161.168 167.415 146.057 167.3Z" fill="#191717"/>
<path d="M246.6 49.6154C246.6 47.4063 244.809 45.6154 242.6 45.6154H215.459C213.25 45.6154 211.459 47.4063 211.459 49.6154V100.86C211.416 114.491 207.243 127.777 199.508 138.913C193.887 147.005 186.583 153.675 178.167 158.484C174.926 160.336 174.926 165.856 178.167 167.707C186.584 172.515 193.888 179.184 199.509 187.275C207.245 198.41 211.417 211.697 211.459 225.327V276.573C211.459 278.783 213.25 280.573 215.459 280.573H242.6C244.809 280.573 246.6 278.783 246.6 276.573V49.6154Z" fill="#191717"/>
<path d="M49.5996 49.1006H76.7607C77.0369 49.1006 77.2608 49.3244 77.2607 49.6006L77.248 100.865V100.866C77.2481 101.012 77.2571 101.132 77.2637 101.207C77.3603 115.462 81.7544 129.352 89.8652 141C95.7733 149.485 103.446 156.483 112.29 161.532C112.551 161.681 112.958 162.175 112.958 163.106C112.958 164.038 112.552 164.531 112.292 164.68C103.421 169.748 95.7266 176.774 89.8047 185.29L89.8018 185.294C81.7381 196.923 77.3674 210.77 77.2637 224.982C77.2607 225.016 77.2577 225.058 77.2549 225.106C77.2514 225.167 77.2481 225.242 77.248 225.327V225.328L77.2607 276.594C77.2607 276.87 77.0369 277.094 76.7607 277.094H49.5996C49.3235 277.094 49.0996 276.87 49.0996 276.594V49.6006C49.0996 49.3244 49.3235 49.1006 49.5996 49.1006ZM146.055 170.8C160.22 170.914 173.783 176.681 183.82 186.876C193.859 197.072 199.563 210.881 199.685 225.327H199.684V270.809C199.684 270.97 199.643 271.047 199.61 271.093C199.567 271.154 199.488 271.225 199.374 271.271C199.26 271.318 199.154 271.324 199.08 271.311C199.025 271.301 198.942 271.275 198.828 271.159L171.617 243.52C171.525 243.426 171.474 243.3 171.474 243.169V225.327C171.56 221.921 170.981 218.529 169.766 215.35C168.539 212.138 166.688 209.205 164.321 206.727H164.32C161.954 204.249 159.119 202.275 155.981 200.927C152.844 199.578 149.469 198.882 146.059 198.882C142.648 198.882 139.274 199.578 136.136 200.927C132.998 202.276 130.163 204.249 127.796 206.727C125.429 209.205 123.579 212.138 122.352 215.35C121.134 218.535 120.555 221.934 120.645 225.347V243.228C120.645 243.359 120.593 243.485 120.501 243.578L93.3838 271.168C93.2702 271.284 93.1858 271.309 93.1309 271.319C93.0566 271.333 92.9519 271.327 92.8379 271.28C92.7235 271.233 92.6443 271.163 92.6006 271.102C92.5684 271.056 92.5274 270.979 92.5273 270.817V225.347C92.6101 210.899 98.2902 197.077 108.32 186.871C118.342 176.674 131.899 170.907 146.055 170.8ZM93.1328 54.8682C93.1877 54.878 93.2721 54.904 93.3857 55.0195L120.503 82.6084C120.595 82.7019 120.646 82.8279 120.646 82.959V100.815C120.554 104.237 121.133 107.644 122.354 110.837C123.581 114.049 125.431 116.982 127.798 119.46C130.165 121.938 133 123.911 136.138 125.26C139.275 126.609 142.65 127.305 146.061 127.305C149.471 127.305 152.846 126.609 155.983 125.26C159.121 123.911 161.956 121.938 164.323 119.46C166.69 116.982 168.54 114.049 169.768 110.837C170.982 107.657 171.562 104.266 171.476 100.859V83.0186C171.476 82.8873 171.527 82.7605 171.619 82.667L198.83 55.0293C198.944 54.914 199.027 54.8878 199.082 54.8779C199.156 54.8647 199.261 54.8704 199.375 54.917C199.489 54.9638 199.569 55.034 199.612 55.0957C199.645 55.1413 199.686 55.2184 199.686 55.3799V100.865H199.687C199.565 115.312 193.861 129.121 183.822 139.317C173.785 149.512 160.219 155.278 146.055 155.392C131.899 155.284 118.341 149.518 108.319 139.319C98.2938 129.117 92.6145 115.301 92.5283 100.859H92.5293V55.3701C92.5293 55.2081 92.5703 55.1305 92.6025 55.085C92.6462 55.0233 92.7254 54.954 92.8398 54.9072C92.954 54.8606 93.0585 54.8549 93.1328 54.8682ZM214.959 225.316C214.915 210.98 210.526 197 202.384 185.278C196.466 176.76 188.774 169.734 179.903 164.668C179.643 164.519 179.236 164.026 179.236 163.096C179.236 162.165 179.643 161.672 179.903 161.523C188.773 156.456 196.465 149.428 202.383 140.909C210.525 129.187 214.914 115.208 214.959 100.871V49.6152C214.959 49.3392 215.183 49.1152 215.459 49.1152H242.6C242.876 49.1152 243.1 49.3392 243.1 49.6152V276.573C243.1 276.849 242.876 277.073 242.6 277.073H215.459C215.183 277.073 214.959 276.849 214.959 276.573V225.316Z" stroke="#FFECEC" stroke-width="7"/>
</g>
<path d="M92.6784 183.288C98.304 175.198 105.61 168.528 114.028 163.718C117.269 161.867 117.267 156.344 114.025 154.493C105.634 149.703 98.3495 143.059 92.7378 135C85.0073 123.897 80.8261 110.646 80.7617 97.0455C80.7617 96.9745 80.7481 96.9174 80.7481 96.8661L80.7607 45.6011C80.7613 43.3916 78.9703 41.6001 76.7608 41.6001H49.5996C47.3905 41.6001 45.5996 43.391 45.5996 45.6001V272.594C45.5996 274.803 47.3905 276.594 49.5996 276.594H76.7607C78.9703 276.594 80.7613 274.802 80.7607 272.593L80.7481 221.328C80.7481 221.278 80.7617 221.221 80.7617 221.148C80.8326 207.587 84.9916 194.373 92.6784 183.288Z" fill="#191717"/>
<path d="M146.057 154.892C161.168 154.778 175.628 148.629 186.317 137.772C197.005 126.916 203.064 112.223 203.186 96.8657V51.3798C203.186 47.8011 198.846 46.0234 196.336 48.5735L169.125 76.2119C168.388 76.9601 167.975 77.9681 167.975 79.0181V96.8598C168.063 99.8405 167.56 102.809 166.498 105.588C165.436 108.368 163.836 110.903 161.792 113.042C159.749 115.182 157.303 116.883 154.601 118.045C151.899 119.206 148.995 119.805 146.061 119.805C143.127 119.805 140.223 119.206 137.52 118.045C134.818 116.883 132.373 115.182 130.329 113.042C128.286 110.903 126.685 108.368 125.623 105.588C124.561 102.809 124.059 99.8405 124.146 96.8598V78.959C124.146 77.9101 123.734 76.9032 122.999 76.1551L95.8815 48.5657C93.3718 46.0123 89.0288 47.7894 89.0288 51.3696V96.8598C89.1152 112.211 95.149 126.91 105.823 137.772C116.497 148.634 130.952 154.785 146.057 154.892Z" fill="#191717"/>
<path d="M146.057 163.3C130.953 163.407 116.498 169.557 105.824 180.418C95.1496 191.279 89.1148 205.976 89.0269 221.327V266.817C89.0269 270.398 93.37 272.175 95.8797 269.621L122.997 242.032C123.732 241.284 124.144 240.277 124.144 239.228V221.327C124.057 218.346 124.559 215.378 125.622 212.599C126.684 209.819 128.284 207.284 130.327 205.144C132.371 203.005 134.816 201.304 137.518 200.142C140.221 198.98 143.125 198.382 146.059 198.382C148.993 198.382 151.897 198.98 154.599 200.142C157.302 201.304 159.747 203.005 161.791 205.144C163.834 207.284 165.434 209.819 166.496 212.599C167.558 215.378 168.061 218.346 167.973 221.327V239.169C167.973 240.219 168.386 241.227 169.123 241.975L196.334 269.615C198.844 272.165 203.184 270.387 203.184 266.809V221.327C203.062 205.969 197.003 191.277 186.315 180.42C175.626 169.564 161.168 163.415 146.057 163.3Z" fill="#191717"/>
<path d="M246.6 45.6154C246.6 43.4063 244.809 41.6154 242.6 41.6154H215.459C213.25 41.6154 211.459 43.4063 211.459 45.6154V96.8598C211.416 110.491 207.243 123.777 199.508 134.913C193.887 143.005 186.583 149.675 178.167 154.484C174.926 156.336 174.926 161.856 178.167 163.707C186.584 168.515 193.888 175.184 199.509 183.275C207.245 194.41 211.417 207.697 211.459 221.327V272.573C211.459 274.783 213.25 276.573 215.459 276.573H242.6C244.809 276.573 246.6 274.783 246.6 272.573V45.6154Z" fill="#191717"/>
<path d="M49.5996 42.1006H76.7607C78.6939 42.1006 80.261 43.6674 80.2607 45.6006L80.248 96.8662C80.2481 96.9003 80.2499 96.9302 80.252 96.9521C80.2539 96.9727 80.2565 96.9948 80.2578 97.0059C80.2609 97.0332 80.2617 97.0412 80.2617 97.0459V97.0479C80.3266 110.749 84.5385 124.099 92.3271 135.285C97.9812 143.406 105.322 150.1 113.777 154.928C115.204 155.742 115.957 157.392 115.958 159.105C115.959 160.819 115.206 162.469 113.78 163.284C105.298 168.131 97.9355 174.851 92.2676 183.002V183.003C84.5229 194.172 80.3331 207.484 80.2617 221.146V221.148C80.2617 221.155 80.2608 221.164 80.2578 221.189C80.2566 221.2 80.2548 221.222 80.2529 221.242C80.2509 221.263 80.2481 221.293 80.248 221.327V221.328L80.2607 272.593C80.2612 274.526 78.6941 276.094 76.7607 276.094H49.5996C47.6666 276.094 46.0996 274.527 46.0996 272.594V45.6006L46.1045 45.4199C46.1983 43.5707 47.7271 42.1006 49.5996 42.1006ZM146.057 163.8C161.032 163.914 175.362 170.01 185.958 180.771C196.389 191.366 202.374 205.648 202.674 220.617L202.684 221.331V266.809C202.684 269.94 198.886 271.495 196.689 269.264L169.479 241.624C168.835 240.969 168.474 240.088 168.474 239.169V221.342C168.563 218.296 168.05 215.261 166.964 212.42C165.878 209.578 164.242 206.987 162.152 204.799C160.063 202.611 157.561 200.871 154.797 199.683C152.032 198.494 149.061 197.882 146.059 197.882C143.057 197.882 140.086 198.494 137.321 199.683C134.557 200.871 132.056 202.611 129.966 204.799C127.876 206.987 126.24 209.579 125.154 212.42C124.137 215.084 123.622 217.917 123.635 220.771L123.645 221.342V239.228C123.645 240.145 123.284 241.027 122.641 241.682L95.5234 269.271C93.3275 271.505 89.5274 269.95 89.5273 266.817V221.33C89.6145 206.108 95.5983 191.535 106.181 180.768C116.762 170.002 131.088 163.907 146.057 163.8ZM89.5293 51.3701C89.5293 48.2374 93.3294 46.6818 95.5254 48.916L122.643 76.5059C123.286 77.1604 123.646 78.0413 123.646 78.959V96.8594C123.559 99.901 124.072 102.93 125.156 105.767C126.242 108.608 127.878 111.2 129.968 113.388C132.058 115.576 134.559 117.316 137.323 118.504C140.087 119.692 143.059 120.305 146.061 120.305C148.875 120.305 151.663 119.766 154.278 118.72L154.799 118.504C157.563 117.316 160.065 115.576 162.154 113.388C164.244 111.2 165.879 108.608 166.965 105.767C168.049 102.93 168.562 99.9011 168.475 96.8594H168.476V79.0186C168.476 78.0997 168.837 77.2172 169.481 76.5625L196.691 48.9238C198.888 46.6925 202.686 48.2486 202.686 51.3799V96.8652C202.564 112.093 196.556 126.66 185.96 137.422C175.364 148.184 161.032 154.277 146.057 154.392C131.088 154.284 116.761 148.189 106.18 137.422C95.763 126.822 89.8026 112.534 89.5371 97.5703L89.5293 96.8574V51.3701ZM211.959 221.325C211.917 207.594 207.713 194.209 199.92 182.99C194.257 174.838 186.897 168.118 178.415 163.273C176.989 162.459 176.236 160.808 176.236 159.096C176.236 157.383 176.989 155.733 178.415 154.918C186.896 150.072 194.256 143.351 199.919 135.198C207.712 123.979 211.916 110.593 211.959 96.8613V45.6152C211.959 43.6823 213.526 42.1152 215.459 42.1152H242.6C244.533 42.1152 246.1 43.6823 246.1 45.6152V272.573C246.1 274.506 244.533 276.073 242.6 276.073H215.459C213.526 276.073 211.959 274.506 211.959 272.573V221.325Z" stroke="#FFECEC"/>
<defs>
<filter id="filter0_dfn_10865_4024" x="-0.000389099" y="9.91821e-05" width="292.2" height="326.194" filterUnits="userSpaceOnUse" color-interpolation-filters="sRGB">
<feFlood flood-opacity="0" result="BackgroundImageFix"/>
<feColorMatrix in="SourceAlpha" type="matrix" values="0 0 0 0 0 0 0 0 0 0 0 0 0 0 0 0 0 0 127 0" result="hardAlpha"/>
<feOffset/>
<feGaussianBlur stdDeviation="22.8"/>
<feComposite in2="hardAlpha" operator="out"/>
<feColorMatrix type="matrix" values="0 0 0 0 0.901961 0 0 0 0 0 0 0 0 0 0 0 0 0 1 0"/>
<feBlend mode="normal" in2="BackgroundImageFix" result="effect1_dropShadow_10865_4024"/>
<feBlend mode="normal" in="SourceGraphic" in2="effect1_dropShadow_10865_4024" result="shape"/>
<feGaussianBlur stdDeviation="1.75" result="effect2_foregroundBlur_10865_4024"/>
<feTurbulence type="fractalNoise" baseFrequency="10 10" stitchTiles="stitch" numOctaves="3" result="noise" seed="8918" />
<feColorMatrix in="noise" type="luminanceToAlpha" result="alphaNoise" />
<feComponentTransfer in="alphaNoise" result="coloredNoise1">
<feFuncA type="discrete" tableValues="0 0 0 0 0 0 0 1 1 1 1 1 1 1 1 1 1 1 1 1 1 1 1 1 1 1 1 1 1 1 1 1 1 1 1 1 1 1 1 1 1 1 0 0 0 0 0 0 0 0 0 0 0 0 0 0 0 0 0 0 0 0 0 0 0 0 0 0 0 0 0 0 0 0 0 0 0 0 0 0 0 0 0 0 0 0 0 0 0 0 0 0 0 0 0 0 0 0 0 0 "/>
</feComponentTransfer>
<feComposite operator="in" in2="effect2_foregroundBlur_10865_4024" in="coloredNoise1" result="noise1Clipped" />
<feFlood flood-color="rgba(0, 0, 0, 0.25)" result="color1Flood" />
<feComposite operator="in" in2="noise1Clipped" in="color1Flood" result="color1" />
<feMerge result="effect3_noise_10865_4024">
<feMergeNode in="effect2_foregroundBlur_10865_4024" />
<feMergeNode in="color1" />
</feMerge>
</filter>
</defs>
</svg>
