<svg width="19" height="19" viewBox="0 0 19 19" fill="none" xmlns="http://www.w3.org/2000/svg">
<path d="M5.79036 17.4611C6.2506 17.4611 6.6237 17.088 6.6237 16.6278C6.6237 16.1675 6.2506 15.7944 5.79036 15.7944C5.33013 15.7944 4.95703 16.1675 4.95703 16.6278C4.95703 17.088 5.33013 17.4611 5.79036 17.4611Z" stroke="black" stroke-width="1.66667" stroke-linecap="round" stroke-linejoin="round"/>
<path d="M14.9544 17.4611C15.4147 17.4611 15.7878 17.088 15.7878 16.6278C15.7878 16.1675 15.4147 15.7944 14.9544 15.7944C14.4942 15.7944 14.1211 16.1675 14.1211 16.6278C14.1211 17.088 14.4942 17.4611 14.9544 17.4611Z" stroke="black" stroke-width="1.66667" stroke-linecap="round" stroke-linejoin="round"/>
<path d="M0.832031 0.833496H2.4987L4.71536 11.1835C4.79668 11.5625 5.00759 11.9014 5.31179 12.1417C5.61599 12.382 5.99445 12.5088 6.38203 12.5002H14.532C14.9113 12.4995 15.2791 12.3696 15.5746 12.1317C15.87 11.8938 16.0755 11.5623 16.157 11.1918L17.532 5.00016H3.39036" stroke="black" stroke-width="1.66667" stroke-linecap="round" stroke-linejoin="round"/>
</svg>
