<svg width="25" height="25" viewBox="0 0 25 25" fill="none" xmlns="http://www.w3.org/2000/svg">
<path d="M23.8569 6.77427C23.5842 5.7478 22.781 4.93938 21.7612 4.66503C19.9127 4.1665 12.5003 4.1665 12.5003 4.1665C12.5003 4.1665 5.08798 4.1665 3.23941 4.66503C2.21957 4.93942 1.41636 5.7478 1.14375 6.77427C0.648438 8.63482 0.648438 12.5167 0.648438 12.5167C0.648438 12.5167 0.648438 16.3985 1.14375 18.2591C1.41636 19.2856 2.21957 20.0603 3.23941 20.3346C5.08798 20.8332 12.5003 20.8332 12.5003 20.8332C12.5003 20.8332 19.9126 20.8332 21.7612 20.3346C22.781 20.0603 23.5842 19.2856 23.8569 18.2591C24.3522 16.3985 24.3522 12.5167 24.3522 12.5167C24.3522 12.5167 24.3522 8.63482 23.8569 6.77427ZM10.076 16.0411V8.99224L16.2713 12.5168L10.076 16.0411Z" fill="white"/>
<path d="M23.8569 6.77427C23.5842 5.7478 22.781 4.93938 21.7612 4.66503C19.9127 4.1665 12.5003 4.1665 12.5003 4.1665C12.5003 4.1665 5.08798 4.1665 3.23941 4.66503C2.21957 4.93942 1.41636 5.7478 1.14375 6.77427C0.648438 8.63482 0.648438 12.5167 0.648438 12.5167C0.648438 12.5167 0.648438 16.3985 1.14375 18.2591C1.41636 19.2856 2.21957 20.0603 3.23941 20.3346C5.08798 20.8332 12.5003 20.8332 12.5003 20.8332C12.5003 20.8332 19.9126 20.8332 21.7612 20.3346C22.781 20.0603 23.5842 19.2856 23.8569 18.2591C24.3522 16.3985 24.3522 12.5167 24.3522 12.5167C24.3522 12.5167 24.3522 8.63482 23.8569 6.77427ZM10.076 16.0411V8.99224L16.2713 12.5168L10.076 16.0411Z" fill="#7E89B8"/>
</svg>
