<svg width="200" height="341" viewBox="0 0 200 341" fill="none" xmlns="http://www.w3.org/2000/svg">
<path d="M60.1561 301.13V283.63H68.1061C70.0061 283.63 71.6811 283.997 73.1311 284.73C74.5811 285.447 75.7144 286.455 76.5311 287.755C77.3477 289.055 77.7561 290.597 77.7561 292.38C77.7561 294.147 77.3477 295.688 76.5311 297.005C75.7144 298.305 74.5811 299.322 73.1311 300.055C71.6811 300.772 70.0061 301.13 68.1061 301.13H60.1561ZM64.2061 297.805H67.9061C69.0727 297.805 70.0811 297.588 70.9311 297.155C71.7977 296.705 72.4644 296.072 72.9311 295.255C73.4144 294.438 73.6561 293.48 73.6561 292.38C73.6561 291.263 73.4144 290.305 72.9311 289.505C72.4644 288.688 71.7977 288.063 70.9311 287.63C70.0811 287.18 69.0727 286.955 67.9061 286.955H64.2061V297.805ZM88.7854 301.13V298.505L88.5354 297.93V293.23C88.5354 292.397 88.277 291.747 87.7604 291.28C87.2604 290.813 86.4854 290.58 85.4354 290.58C84.7187 290.58 84.0104 290.697 83.3104 290.93C82.627 291.147 82.0437 291.447 81.5604 291.83L80.1604 289.105C80.8937 288.588 81.777 288.188 82.8104 287.905C83.8437 287.622 84.8937 287.48 85.9604 287.48C88.0104 287.48 89.602 287.963 90.7354 288.93C91.8687 289.897 92.4354 291.405 92.4354 293.455V301.13H88.7854ZM84.6854 301.33C83.6354 301.33 82.7354 301.155 81.9854 300.805C81.2354 300.438 80.6604 299.947 80.2604 299.33C79.8604 298.713 79.6604 298.022 79.6604 297.255C79.6604 296.455 79.852 295.755 80.2354 295.155C80.6354 294.555 81.2604 294.088 82.1104 293.755C82.9604 293.405 84.0687 293.23 85.4354 293.23H89.0104V295.505H85.8604C84.9437 295.505 84.3104 295.655 83.9604 295.955C83.627 296.255 83.4604 296.63 83.4604 297.08C83.4604 297.58 83.652 297.98 84.0354 298.28C84.4354 298.563 84.977 298.705 85.6604 298.705C86.3104 298.705 86.8937 298.555 87.4104 298.255C87.927 297.938 88.302 297.48 88.5354 296.88L89.1354 298.68C88.852 299.547 88.3354 300.205 87.5854 300.655C86.8354 301.105 85.8687 301.33 84.6854 301.33ZM104.14 287.48C105.207 287.48 106.157 287.697 106.99 288.13C107.84 288.547 108.507 289.197 108.99 290.08C109.473 290.947 109.715 292.063 109.715 293.43V301.13H105.815V294.03C105.815 292.947 105.573 292.147 105.09 291.63C104.623 291.113 103.957 290.855 103.09 290.855C102.473 290.855 101.915 290.988 101.415 291.255C100.932 291.505 100.548 291.897 100.265 292.43C99.9984 292.963 99.865 293.647 99.865 294.48V301.13H95.965V287.68H99.69V291.405L98.99 290.28C99.4734 289.38 100.165 288.688 101.065 288.205C101.965 287.722 102.99 287.48 104.14 287.48ZM119.848 301.33C118.398 301.33 117.106 301.038 115.973 300.455C114.84 299.855 113.948 299.03 113.298 297.98C112.665 296.93 112.348 295.738 112.348 294.405C112.348 293.055 112.665 291.863 113.298 290.83C113.948 289.78 114.84 288.963 115.973 288.38C117.106 287.78 118.398 287.48 119.848 287.48C121.265 287.48 122.498 287.78 123.548 288.38C124.598 288.963 125.373 289.805 125.873 290.905L122.848 292.53C122.498 291.897 122.056 291.43 121.523 291.13C121.006 290.83 120.44 290.68 119.823 290.68C119.156 290.68 118.556 290.83 118.023 291.13C117.49 291.43 117.065 291.855 116.748 292.405C116.448 292.955 116.298 293.622 116.298 294.405C116.298 295.188 116.448 295.855 116.748 296.405C117.065 296.955 117.49 297.38 118.023 297.68C118.556 297.98 119.156 298.13 119.823 298.13C120.44 298.13 121.006 297.988 121.523 297.705C122.056 297.405 122.498 296.93 122.848 296.28L125.873 297.93C125.373 299.013 124.598 299.855 123.548 300.455C122.498 301.038 121.265 301.33 119.848 301.33ZM134.622 301.33C133.089 301.33 131.739 301.03 130.572 300.43C129.422 299.83 128.531 299.013 127.897 297.98C127.264 296.93 126.947 295.738 126.947 294.405C126.947 293.055 127.256 291.863 127.872 290.83C128.506 289.78 129.364 288.963 130.447 288.38C131.531 287.78 132.756 287.48 134.122 287.48C135.439 287.48 136.622 287.763 137.672 288.33C138.739 288.88 139.581 289.68 140.197 290.73C140.814 291.763 141.122 293.005 141.122 294.455C141.122 294.605 141.114 294.78 141.097 294.98C141.081 295.163 141.064 295.338 141.047 295.505H130.122V293.23H138.997L137.497 293.905C137.497 293.205 137.356 292.597 137.072 292.08C136.789 291.563 136.397 291.163 135.897 290.88C135.397 290.58 134.814 290.43 134.147 290.43C133.481 290.43 132.889 290.58 132.372 290.88C131.872 291.163 131.481 291.572 131.197 292.105C130.914 292.622 130.772 293.238 130.772 293.955V294.555C130.772 295.288 130.931 295.938 131.247 296.505C131.581 297.055 132.039 297.48 132.622 297.78C133.222 298.063 133.922 298.205 134.722 298.205C135.439 298.205 136.064 298.097 136.597 297.88C137.147 297.663 137.647 297.338 138.097 296.905L140.172 299.155C139.556 299.855 138.781 300.397 137.847 300.78C136.914 301.147 135.839 301.33 134.622 301.33Z" fill="#191717"/>
<rect width="200" height="268.161" rx="35" fill="url(#paint0_linear_10367_398)"/>
<path d="M136.323 86.9956V151.146C136.323 155.91 134.582 160.479 131.484 163.847C128.386 167.216 124.183 169.108 119.802 169.108C115.42 169.108 111.218 167.216 108.119 163.847C105.021 160.479 103.281 155.91 103.281 151.146C103.281 146.382 105.021 141.813 108.119 138.445C111.218 135.076 115.42 133.184 119.802 133.184C122.351 133.184 124.758 133.8 126.882 134.929V104.804L79.679 115.735V161.41C79.679 166.174 77.9384 170.743 74.84 174.111C71.7417 177.48 67.5395 179.372 63.1578 179.372C58.7762 179.372 54.574 177.48 51.4756 174.111C48.3773 170.743 46.6367 166.174 46.6367 161.41C46.6367 156.646 48.3773 152.078 51.4756 148.709C54.574 145.34 58.7762 143.448 63.1578 143.448C65.7068 143.448 68.1142 144.064 70.2383 145.193V102.392L136.323 86.9956Z" fill="#F9F9F9"/>
<defs>
<linearGradient id="paint0_linear_10367_398" x1="100" y1="0" x2="100" y2="268.161" gradientUnits="userSpaceOnUse">
<stop stop-color="#E9373A"/>
<stop offset="1" stop-color="#1257CA"/>
</linearGradient>
</defs>
</svg>
