<svg width="200" height="341" viewBox="0 0 200 341" fill="none" xmlns="http://www.w3.org/2000/svg">
<path d="M67.1268 283.63H71.1768V301.13H67.1268V283.63ZM59.1768 301.13H55.1268V283.63H59.1768V301.13ZM67.4268 293.955H58.8768V290.53H67.4268V293.955ZM75.0422 301.13V287.68H78.9422V301.13H75.0422ZM76.9922 285.805C76.2755 285.805 75.6922 285.597 75.2422 285.18C74.7922 284.763 74.5672 284.247 74.5672 283.63C74.5672 283.013 74.7922 282.497 75.2422 282.08C75.6922 281.663 76.2755 281.455 76.9922 281.455C77.7089 281.455 78.2922 281.655 78.7422 282.055C79.1922 282.438 79.4172 282.938 79.4172 283.555C79.4172 284.205 79.1922 284.747 78.7422 285.18C78.3089 285.597 77.7255 285.805 76.9922 285.805ZM87.0867 301.33C85.9367 301.33 84.8284 301.197 83.7617 300.93C82.7117 300.647 81.8784 300.297 81.2617 299.88L82.5617 297.08C83.1784 297.463 83.9034 297.78 84.7367 298.03C85.5867 298.263 86.4201 298.38 87.2367 298.38C88.1367 298.38 88.7701 298.272 89.1367 298.055C89.5201 297.838 89.7117 297.538 89.7117 297.155C89.7117 296.838 89.5617 296.605 89.2617 296.455C88.9784 296.288 88.5951 296.163 88.1117 296.08C87.6284 295.997 87.0951 295.913 86.5117 295.83C85.9451 295.747 85.3701 295.638 84.7867 295.505C84.2034 295.355 83.6701 295.138 83.1867 294.855C82.7034 294.572 82.3117 294.188 82.0117 293.705C81.7284 293.222 81.5867 292.597 81.5867 291.83C81.5867 290.98 81.8284 290.23 82.3117 289.58C82.8117 288.93 83.5284 288.422 84.4617 288.055C85.3951 287.672 86.5117 287.48 87.8117 287.48C88.7284 287.48 89.6617 287.58 90.6117 287.78C91.5617 287.98 92.3534 288.272 92.9867 288.655L91.6867 291.43C91.0367 291.047 90.3784 290.788 89.7117 290.655C89.0617 290.505 88.4284 290.43 87.8117 290.43C86.9451 290.43 86.3117 290.547 85.9117 290.78C85.5117 291.013 85.3117 291.313 85.3117 291.68C85.3117 292.013 85.4534 292.263 85.7367 292.43C86.0367 292.597 86.4284 292.73 86.9117 292.83C87.3951 292.93 87.9201 293.022 88.4867 293.105C89.0701 293.172 89.6534 293.28 90.2367 293.43C90.8201 293.58 91.3451 293.797 91.8117 294.08C92.2951 294.347 92.6867 294.722 92.9867 295.205C93.2867 295.672 93.4367 296.288 93.4367 297.055C93.4367 297.888 93.1867 298.63 92.6867 299.28C92.1867 299.913 91.4617 300.413 90.5117 300.78C89.5784 301.147 88.4367 301.33 87.0867 301.33ZM101.343 301.33C99.7596 301.33 98.5263 300.93 97.643 300.13C96.7596 299.313 96.318 298.105 96.318 296.505V284.705H100.218V296.455C100.218 297.022 100.368 297.463 100.668 297.78C100.968 298.08 101.376 298.23 101.893 298.23C102.51 298.23 103.035 298.063 103.468 297.73L104.518 300.48C104.118 300.763 103.635 300.98 103.068 301.13C102.518 301.263 101.943 301.33 101.343 301.33ZM94.243 290.98V287.98H103.568V290.98H94.243ZM112.692 301.33C111.259 301.33 109.984 301.03 108.867 300.43C107.767 299.83 106.892 299.013 106.242 297.98C105.609 296.93 105.292 295.738 105.292 294.405C105.292 293.055 105.609 291.863 106.242 290.83C106.892 289.78 107.767 288.963 108.867 288.38C109.984 287.78 111.259 287.48 112.692 287.48C114.109 287.48 115.376 287.78 116.492 288.38C117.609 288.963 118.484 289.772 119.117 290.805C119.751 291.838 120.067 293.038 120.067 294.405C120.067 295.738 119.751 296.93 119.117 297.98C118.484 299.013 117.609 299.83 116.492 300.43C115.376 301.03 114.109 301.33 112.692 301.33ZM112.692 298.13C113.342 298.13 113.926 297.98 114.442 297.68C114.959 297.38 115.367 296.955 115.667 296.405C115.967 295.838 116.117 295.172 116.117 294.405C116.117 293.622 115.967 292.955 115.667 292.405C115.367 291.855 114.959 291.43 114.442 291.13C113.926 290.83 113.342 290.68 112.692 290.68C112.042 290.68 111.459 290.83 110.942 291.13C110.426 291.43 110.009 291.855 109.692 292.405C109.392 292.955 109.242 293.622 109.242 294.405C109.242 295.172 109.392 295.838 109.692 296.405C110.009 296.955 110.426 297.38 110.942 297.68C111.459 297.98 112.042 298.13 112.692 298.13ZM122.674 301.13V287.68H126.399V291.48L125.874 290.38C126.274 289.43 126.916 288.713 127.799 288.23C128.682 287.73 129.757 287.48 131.024 287.48V291.08C130.857 291.063 130.707 291.055 130.574 291.055C130.441 291.038 130.299 291.03 130.149 291.03C129.082 291.03 128.216 291.338 127.549 291.955C126.899 292.555 126.574 293.497 126.574 294.78V301.13H122.674ZM135.507 306.18C134.807 306.18 134.115 306.072 133.432 305.855C132.749 305.638 132.19 305.338 131.757 304.955L133.182 302.18C133.482 302.447 133.824 302.655 134.207 302.805C134.607 302.955 134.999 303.03 135.382 303.03C135.932 303.03 136.365 302.897 136.682 302.63C137.015 302.38 137.315 301.955 137.582 301.355L138.282 299.705L138.582 299.28L143.407 287.68H147.157L141.082 301.955C140.649 303.038 140.149 303.888 139.582 304.505C139.032 305.122 138.415 305.555 137.732 305.805C137.065 306.055 136.324 306.18 135.507 306.18ZM137.807 301.655L131.807 287.68H135.832L140.482 298.93L137.807 301.655Z" fill="#191717"/>
<rect width="200" height="268.161" rx="35" fill="url(#paint0_linear_10367_414)"/>
<path d="M100.449 166.816C93.6315 162.877 85.8986 160.803 78.027 160.803C70.1554 160.803 62.4225 162.877 55.6055 166.816V101.978C62.4225 98.0385 70.1554 95.9644 78.027 95.9644C85.8986 95.9644 93.6315 98.0385 100.449 101.978M100.449 166.816C107.266 162.877 114.998 160.803 122.87 160.803C130.742 160.803 138.475 162.877 145.292 166.816V101.978C138.475 98.0385 130.742 95.9644 122.87 95.9644C114.998 95.9644 107.266 98.0385 100.449 101.978M100.449 166.816V101.978" stroke="#F9F9F9" stroke-width="10" stroke-linecap="round" stroke-linejoin="round"/>
<defs>
<linearGradient id="paint0_linear_10367_414" x1="100" y1="0" x2="100" y2="268.161" gradientUnits="userSpaceOnUse">
<stop stop-color="#FFD191"/>
<stop offset="1" stop-color="#737373"/>
</linearGradient>
</defs>
</svg>
