<svg width="200" height="341" viewBox="0 0 200 341" fill="none" xmlns="http://www.w3.org/2000/svg">
<path d="M77.2482 301.43C76.0649 301.43 74.9732 301.213 73.9732 300.78C72.9899 300.33 72.1816 299.697 71.5482 298.88L73.7982 296.18C74.2816 296.813 74.7899 297.297 75.3232 297.63C75.8566 297.947 76.4316 298.105 77.0482 298.105C78.6982 298.105 79.5232 297.138 79.5232 295.205V286.88H73.3732V283.63H83.5482V294.98C83.5482 297.147 83.0149 298.763 81.9482 299.83C80.8816 300.897 79.3149 301.43 77.2482 301.43ZM95.5236 301.13V298.505L95.2736 297.93V293.23C95.2736 292.397 95.0153 291.747 94.4986 291.28C93.9986 290.813 93.2236 290.58 92.1736 290.58C91.457 290.58 90.7486 290.697 90.0486 290.93C89.3653 291.147 88.782 291.447 88.2986 291.83L86.8986 289.105C87.632 288.588 88.5153 288.188 89.5486 287.905C90.582 287.622 91.632 287.48 92.6986 287.48C94.7486 287.48 96.3403 287.963 97.4736 288.93C98.607 289.897 99.1736 291.405 99.1736 293.455V301.13H95.5236ZM91.4236 301.33C90.3736 301.33 89.4736 301.155 88.7236 300.805C87.9736 300.438 87.3986 299.947 86.9986 299.33C86.5986 298.713 86.3986 298.022 86.3986 297.255C86.3986 296.455 86.5903 295.755 86.9736 295.155C87.3736 294.555 87.9986 294.088 88.8486 293.755C89.6986 293.405 90.807 293.23 92.1736 293.23H95.7486V295.505H92.5986C91.682 295.505 91.0486 295.655 90.6986 295.955C90.3653 296.255 90.1986 296.63 90.1986 297.08C90.1986 297.58 90.3903 297.98 90.7736 298.28C91.1736 298.563 91.7153 298.705 92.3986 298.705C93.0486 298.705 93.632 298.555 94.1486 298.255C94.6653 297.938 95.0403 297.48 95.2736 296.88L95.8736 298.68C95.5903 299.547 95.0736 300.205 94.3236 300.655C93.5736 301.105 92.607 301.33 91.4236 301.33ZM101.778 301.13V298.78L109.728 289.38L110.403 290.68H101.953V287.68H113.553V290.03L105.603 299.43L104.903 298.13H113.778V301.13H101.778ZM115.353 301.13V298.78L123.303 289.38L123.978 290.68H115.528V287.68H127.128V290.03L119.178 299.43L118.478 298.13H127.353V301.13H115.353Z" fill="#191717"/>
<rect width="200" height="268.161" rx="35" fill="url(#paint0_linear_10367_402)"/>
<path d="M143.449 92.8932L142.958 92.6374C138.229 90.0824 132.761 89.1483 127.425 89.984L122.847 90.7033V90.6873L118.89 91.3267C114.189 92.0752 109.802 94.1115 106.238 97.1994C105.882 96.8359 105.453 96.5497 104.977 96.3593C104.501 96.1689 103.989 96.0786 103.475 96.0944C102.961 96.1101 102.456 96.2314 101.994 96.4505C101.531 96.6696 101.12 96.9815 100.789 97.3659C100.457 97.7504 100.213 98.1987 100.07 98.6818C99.9279 99.1649 99.8912 99.6718 99.9625 100.17C100.034 100.668 100.212 101.145 100.484 101.571C100.757 101.998 101.118 102.363 101.545 102.644C100.948 103.589 100.415 104.572 99.9491 105.585C99.4113 105.462 98.8523 105.46 98.3134 105.578C97.7746 105.695 97.2699 105.931 96.8368 106.265C96.4038 106.6 96.0536 107.026 95.8122 107.512C95.5708 107.997 95.4445 108.53 95.4427 109.069C95.4427 110.658 96.5023 112.004 97.9673 112.474C97.828 113.561 97.7603 114.656 97.7646 115.751V116.09C96.8609 116.184 96.0253 116.603 95.4201 117.266C94.8148 117.928 94.4833 118.787 94.4898 119.676C94.4963 120.564 94.8405 121.419 95.4553 122.073C96.0702 122.727 96.9119 123.134 97.8169 123.216L97.9608 143.915L97.9935 147.272C97.9935 148.071 97.4703 148.807 96.6527 148.999C95.6717 149.222 94.7233 148.583 94.5598 147.624L94.0039 143.148L92.3524 131.125L93.1863 130.837C95.2792 130.134 96.3911 127.896 95.639 125.85C94.9195 123.804 92.6304 122.717 90.5375 123.452L58.2935 134.418C56.2006 135.121 55.0888 137.359 55.8409 139.405C56.5604 141.451 58.8495 142.538 60.9424 141.802L61.9365 141.467L73.1728 164.695C73.6699 165.632 75.2788 168.464 75.5862 169.005L75.6255 169.075C78.307 173.742 82.1985 177.291 87.3981 178.698C90.8601 179.649 94.5305 179.593 97.9608 178.538C105.155 176.332 110.453 169.938 110.878 162.266C110.911 161.882 110.943 161.498 110.943 161.115L111.009 114.696C111.009 108.782 115.424 103.731 121.408 102.772L124.842 102.196V102.187L124.835 102.167L129.354 101.461L142.304 99.3829C143.036 99.2655 143.711 98.9283 144.237 98.4182C144.763 97.908 145.114 97.2502 145.24 96.5363C145.366 95.8224 145.261 95.0879 144.94 94.435C144.619 93.782 144.098 93.2431 143.449 92.8932Z" fill="#F9F9F9"/>
<defs>
<linearGradient id="paint0_linear_10367_402" x1="100" y1="0" x2="100" y2="268.161" gradientUnits="userSpaceOnUse">
<stop stop-color="#F0D400"/>
<stop offset="1" stop-color="#FFBE9C"/>
</linearGradient>
</defs>
</svg>
