<svg width="16" height="19" viewBox="0 0 16 19" fill="none" xmlns="http://www.w3.org/2000/svg">
<path d="M3.74757 11.4561C4.36387 10.5559 5.23354 9.87323 6.23858 9.50072C5.23569 9.12997 4.36764 8.44959 3.75229 7.55196C3.13693 6.65434 2.8041 5.58298 2.79897 4.48333C2.79897 4.4776 2.79789 4.47297 2.79789 4.46883L2.79897 0.000514718H0L0 19H2.79897L2.79789 14.5317C2.79789 14.5277 2.79897 14.5231 2.79897 14.5172C2.80461 13.4207 3.13568 12.3524 3.74757 11.4561Z" fill="black"/>
<path d="M7.9966 9.16031C9.19944 9.15107 10.3505 8.6539 11.2013 7.77615C12.0522 6.8984 12.5345 5.71046 12.5442 4.4688V0.00175397L9.74135 2.89332V4.46832C9.7483 4.70931 9.70831 4.94928 9.62377 5.17401C9.53923 5.39876 9.41186 5.60371 9.24918 5.7767C9.08651 5.9497 8.89185 6.08722 8.67676 6.18114C8.46165 6.27506 8.23046 6.32345 7.99691 6.32345C7.76336 6.32345 7.53218 6.27506 7.31708 6.18114C7.10198 6.08722 6.90732 5.9497 6.74464 5.7767C6.58197 5.60371 6.4546 5.39876 6.37005 5.17401C6.28551 4.94928 6.24553 4.70931 6.25248 4.46832V2.88869L3.45705 0V4.46832C3.46393 5.7095 3.94423 6.89792 4.79391 7.77613C5.6436 8.65435 6.79425 9.15166 7.9966 9.16031Z" fill="black"/>
<path d="M7.99661 9.8401C6.7943 9.84873 5.64368 10.3459 4.79398 11.2241C3.94428 12.1022 3.4639 13.2905 3.4569 14.5316V19L6.25233 16.1113V14.5316C6.24538 14.2906 6.28536 14.0507 6.3699 13.8259C6.45445 13.6012 6.58181 13.3962 6.74449 13.2232C6.90716 13.0503 7.10182 12.9127 7.31692 12.8188C7.53203 12.7249 7.76321 12.6765 7.99676 12.6765C8.23031 12.6765 8.4615 12.7249 8.67661 12.8188C8.8917 12.9127 9.08636 13.0503 9.24903 13.2232C9.41171 13.3962 9.53908 13.6012 9.62362 13.8259C9.70816 14.0507 9.74815 14.2906 9.7412 14.5316V16.1066L12.544 18.9984V14.5316C12.5343 13.29 12.052 12.102 11.2012 11.2243C10.3504 10.3465 9.19946 9.84936 7.99661 9.8401Z" fill="black"/>
<path d="M16 0.00175154H13.2027V4.46832C13.1993 5.57039 12.8671 6.64462 12.2514 7.54495C11.6357 8.44526 10.7663 9.12796 9.76142 9.50022C10.7663 9.87227 11.6358 10.5549 12.2515 11.4551C12.8673 12.3554 13.1994 13.4296 13.2027 14.5316V18.9984H16V0.00175154Z" fill="black"/>
</svg>
