<svg width="200" height="341" viewBox="0 0 200 341" fill="none" xmlns="http://www.w3.org/2000/svg">
<path d="M62.8055 301.43C61.4055 301.43 60.0638 301.247 58.7805 300.88C57.4971 300.497 56.4638 300.005 55.6805 299.405L57.0555 296.355C57.8055 296.888 58.6888 297.33 59.7055 297.68C60.7388 298.013 61.7805 298.18 62.8305 298.18C63.6305 298.18 64.2721 298.105 64.7555 297.955C65.2555 297.788 65.6221 297.563 65.8555 297.28C66.0888 296.997 66.2055 296.672 66.2055 296.305C66.2055 295.838 66.0221 295.472 65.6555 295.205C65.2888 294.922 64.8055 294.697 64.2055 294.53C63.6055 294.347 62.9388 294.18 62.2055 294.03C61.4888 293.863 60.7638 293.663 60.0305 293.43C59.3138 293.197 58.6555 292.897 58.0555 292.53C57.4555 292.163 56.9638 291.68 56.5805 291.08C56.2138 290.48 56.0305 289.713 56.0305 288.78C56.0305 287.78 56.2971 286.872 56.8305 286.055C57.3805 285.222 58.1971 284.563 59.2805 284.08C60.3805 283.58 61.7555 283.33 63.4055 283.33C64.5055 283.33 65.5888 283.463 66.6555 283.73C67.7221 283.98 68.6638 284.363 69.4805 284.88L68.2305 287.955C67.4138 287.488 66.5971 287.147 65.7805 286.93C64.9638 286.697 64.1638 286.58 63.3805 286.58C62.5971 286.58 61.9555 286.672 61.4555 286.855C60.9555 287.038 60.5971 287.28 60.3805 287.58C60.1638 287.863 60.0555 288.197 60.0555 288.58C60.0555 289.03 60.2388 289.397 60.6055 289.68C60.9721 289.947 61.4555 290.163 62.0555 290.33C62.6555 290.497 63.3138 290.663 64.0305 290.83C64.7638 290.997 65.4888 291.188 66.2055 291.405C66.9388 291.622 67.6055 291.913 68.2055 292.28C68.8055 292.647 69.2888 293.13 69.6555 293.73C70.0388 294.33 70.2305 295.088 70.2305 296.005C70.2305 296.988 69.9555 297.888 69.4055 298.705C68.8555 299.522 68.0305 300.18 66.9305 300.68C65.8471 301.18 64.4721 301.43 62.8055 301.43ZM78.2229 301.33C76.6395 301.33 75.4062 300.93 74.5229 300.13C73.6395 299.313 73.1979 298.105 73.1979 296.505V284.705H77.0979V296.455C77.0979 297.022 77.2479 297.463 77.5479 297.78C77.8479 298.08 78.2562 298.23 78.7729 298.23C79.3895 298.23 79.9145 298.063 80.3479 297.73L81.3979 300.48C80.9979 300.763 80.5145 300.98 79.9479 301.13C79.3979 301.263 78.8229 301.33 78.2229 301.33ZM71.1229 290.98V287.98H80.4479V290.98H71.1229ZM89.5721 301.33C88.1387 301.33 86.8637 301.03 85.7471 300.43C84.6471 299.83 83.7721 299.013 83.1221 297.98C82.4887 296.93 82.1721 295.738 82.1721 294.405C82.1721 293.055 82.4887 291.863 83.1221 290.83C83.7721 289.78 84.6471 288.963 85.7471 288.38C86.8637 287.78 88.1387 287.48 89.5721 287.48C90.9887 287.48 92.2554 287.78 93.3721 288.38C94.4887 288.963 95.3637 289.772 95.9971 290.805C96.6304 291.838 96.9471 293.038 96.9471 294.405C96.9471 295.738 96.6304 296.93 95.9971 297.98C95.3637 299.013 94.4887 299.83 93.3721 300.43C92.2554 301.03 90.9887 301.33 89.5721 301.33ZM89.5721 298.13C90.2221 298.13 90.8054 297.98 91.3221 297.68C91.8387 297.38 92.2471 296.955 92.5471 296.405C92.8471 295.838 92.9971 295.172 92.9971 294.405C92.9971 293.622 92.8471 292.955 92.5471 292.405C92.2471 291.855 91.8387 291.43 91.3221 291.13C90.8054 290.83 90.2221 290.68 89.5721 290.68C88.9221 290.68 88.3387 290.83 87.8221 291.13C87.3054 291.43 86.8887 291.855 86.5721 292.405C86.2721 292.955 86.1221 293.622 86.1221 294.405C86.1221 295.172 86.2721 295.838 86.5721 296.405C86.8887 296.955 87.3054 297.38 87.8221 297.68C88.3387 297.98 88.9221 298.13 89.5721 298.13ZM99.5539 301.13V287.68H103.279V291.48L102.754 290.38C103.154 289.43 103.796 288.713 104.679 288.23C105.562 287.73 106.637 287.48 107.904 287.48V291.08C107.737 291.063 107.587 291.055 107.454 291.055C107.321 291.038 107.179 291.03 107.029 291.03C105.962 291.03 105.096 291.338 104.429 291.955C103.779 292.555 103.454 293.497 103.454 294.78V301.13H99.5539ZM110.247 301.13V287.68H114.147V301.13H110.247ZM112.197 285.805C111.481 285.805 110.897 285.597 110.447 285.18C109.997 284.763 109.772 284.247 109.772 283.63C109.772 283.013 109.997 282.497 110.447 282.08C110.897 281.663 111.481 281.455 112.197 281.455C112.914 281.455 113.497 281.655 113.947 282.055C114.397 282.438 114.622 282.938 114.622 283.555C114.622 284.205 114.397 284.747 113.947 285.18C113.514 285.597 112.931 285.805 112.197 285.805ZM124.442 301.33C122.908 301.33 121.558 301.03 120.392 300.43C119.242 299.83 118.35 299.013 117.717 297.98C117.083 296.93 116.767 295.738 116.767 294.405C116.767 293.055 117.075 291.863 117.692 290.83C118.325 289.78 119.183 288.963 120.267 288.38C121.35 287.78 122.575 287.48 123.942 287.48C125.258 287.48 126.442 287.763 127.492 288.33C128.558 288.88 129.4 289.68 130.017 290.73C130.633 291.763 130.942 293.005 130.942 294.455C130.942 294.605 130.933 294.78 130.917 294.98C130.9 295.163 130.883 295.338 130.867 295.505H119.942V293.23H128.817L127.317 293.905C127.317 293.205 127.175 292.597 126.892 292.08C126.608 291.563 126.217 291.163 125.717 290.88C125.217 290.58 124.633 290.43 123.967 290.43C123.3 290.43 122.708 290.58 122.192 290.88C121.692 291.163 121.3 291.572 121.017 292.105C120.733 292.622 120.592 293.238 120.592 293.955V294.555C120.592 295.288 120.75 295.938 121.067 296.505C121.4 297.055 121.858 297.48 122.442 297.78C123.042 298.063 123.742 298.205 124.542 298.205C125.258 298.205 125.883 298.097 126.417 297.88C126.967 297.663 127.467 297.338 127.917 296.905L129.992 299.155C129.375 299.855 128.6 300.397 127.667 300.78C126.733 301.147 125.658 301.33 124.442 301.33ZM138.063 301.33C136.913 301.33 135.805 301.197 134.738 300.93C133.688 300.647 132.855 300.297 132.238 299.88L133.538 297.08C134.155 297.463 134.88 297.78 135.713 298.03C136.563 298.263 137.397 298.38 138.213 298.38C139.113 298.38 139.747 298.272 140.113 298.055C140.497 297.838 140.688 297.538 140.688 297.155C140.688 296.838 140.538 296.605 140.238 296.455C139.955 296.288 139.572 296.163 139.088 296.08C138.605 295.997 138.072 295.913 137.488 295.83C136.922 295.747 136.347 295.638 135.763 295.505C135.18 295.355 134.647 295.138 134.163 294.855C133.68 294.572 133.288 294.188 132.988 293.705C132.705 293.222 132.563 292.597 132.563 291.83C132.563 290.98 132.805 290.23 133.288 289.58C133.788 288.93 134.505 288.422 135.438 288.055C136.372 287.672 137.488 287.48 138.788 287.48C139.705 287.48 140.638 287.58 141.588 287.78C142.538 287.98 143.33 288.272 143.963 288.655L142.663 291.43C142.013 291.047 141.355 290.788 140.688 290.655C140.038 290.505 139.405 290.43 138.788 290.43C137.922 290.43 137.288 290.547 136.888 290.78C136.488 291.013 136.288 291.313 136.288 291.68C136.288 292.013 136.43 292.263 136.713 292.43C137.013 292.597 137.405 292.73 137.888 292.83C138.372 292.93 138.897 293.022 139.463 293.105C140.047 293.172 140.63 293.28 141.213 293.43C141.797 293.58 142.322 293.797 142.788 294.08C143.272 294.347 143.663 294.722 143.963 295.205C144.263 295.672 144.413 296.288 144.413 297.055C144.413 297.888 144.163 298.63 143.663 299.28C143.163 299.913 142.438 300.413 141.488 300.78C140.555 301.147 139.413 301.33 138.063 301.33Z" fill="#191717"/>
<rect width="200" height="268.161" rx="35" fill="url(#paint0_linear_10367_410)"/>
<path d="M112.262 100.371C115.844 104.321 118.396 109.091 119.692 114.258C120.987 119.425 120.988 124.831 119.692 129.998L119.362 131.212L135.162 151.478C136.492 153.183 137.357 155.203 137.672 157.341C137.987 159.478 137.742 161.661 136.96 163.676C137.518 163.832 138.106 163.856 138.675 163.745L139.232 163.606C140.396 163.236 141.66 163.338 142.749 163.889C143.838 164.441 144.666 165.399 145.053 166.554C145.439 167.71 145.354 168.971 144.815 170.065C144.276 171.159 143.328 171.997 142.174 172.398C139.153 173.433 135.853 173.311 132.917 172.055C132.003 171.669 131.136 171.181 130.334 170.599C128.407 171.448 126.297 171.8 124.199 171.622C122.101 171.443 120.081 170.741 118.326 169.58L117.564 169.028L97.2477 153.272C91.917 154.823 86.2769 154.988 80.8645 153.75C75.452 152.512 70.4474 149.913 66.3273 146.2C76.2566 141.366 85.3088 134.917 93.112 127.116C100.942 119.326 107.414 110.284 112.262 100.371ZM104.864 94.2998C100.379 104.075 94.1737 112.968 86.5413 120.558C78.9352 128.163 70.0241 134.347 60.2306 138.817C56.5037 132.612 54.9622 125.343 55.8506 118.165C56.7391 110.986 60.0066 104.309 65.1345 99.1941C70.2624 94.079 76.9567 90.8189 84.1545 89.9313C91.3524 89.0438 98.6413 90.5843 104.864 94.2998Z" fill="#F9F9F9"/>
<defs>
<linearGradient id="paint0_linear_10367_410" x1="100" y1="0" x2="100" y2="268.161" gradientUnits="userSpaceOnUse">
<stop stop-color="#FF4646"/>
<stop offset="1" stop-color="#191717"/>
</linearGradient>
</defs>
</svg>
