<svg width="200" height="341" viewBox="0 0 200 341" fill="none" xmlns="http://www.w3.org/2000/svg">
<path d="M56.2663 301.13V293.98L57.1913 296.43L49.4913 283.63H53.7913L59.6913 293.455H57.2163L63.1413 283.63H67.1163L59.4163 296.43L60.3163 293.98V301.13H56.2663ZM73.3319 301.33C72.2153 301.33 71.2153 301.113 70.3319 300.68C69.4653 300.247 68.7903 299.588 68.3069 298.705C67.8236 297.805 67.5819 296.663 67.5819 295.28V287.68H71.4819V294.705C71.4819 295.822 71.7153 296.647 72.1819 297.18C72.6653 297.697 73.3403 297.955 74.2069 297.955C74.8069 297.955 75.3403 297.83 75.8069 297.58C76.2736 297.313 76.6403 296.913 76.9069 296.38C77.1736 295.83 77.3069 295.147 77.3069 294.33V287.68H81.2069V301.13H77.5069V297.43L78.1819 298.505C77.7319 299.438 77.0653 300.147 76.1819 300.63C75.3153 301.097 74.3653 301.33 73.3319 301.33ZM102.045 287.48C103.112 287.48 104.053 287.697 104.87 288.13C105.703 288.547 106.353 289.197 106.82 290.08C107.303 290.947 107.545 292.063 107.545 293.43V301.13H103.645V294.03C103.645 292.947 103.42 292.147 102.97 291.63C102.52 291.113 101.887 290.855 101.07 290.855C100.503 290.855 99.995 290.988 99.545 291.255C99.095 291.505 98.745 291.888 98.495 292.405C98.245 292.922 98.12 293.58 98.12 294.38V301.13H94.22V294.03C94.22 292.947 93.995 292.147 93.545 291.63C93.1117 291.113 92.4867 290.855 91.67 290.855C91.1034 290.855 90.595 290.988 90.145 291.255C89.695 291.505 89.345 291.888 89.095 292.405C88.845 292.922 88.72 293.58 88.72 294.38V301.13H84.82V287.68H88.545V291.355L87.845 290.28C88.3117 289.363 88.97 288.672 89.82 288.205C90.6867 287.722 91.67 287.48 92.77 287.48C94.0034 287.48 95.0784 287.797 95.995 288.43C96.9284 289.047 97.545 289.997 97.845 291.28L96.47 290.905C96.92 289.855 97.6367 289.022 98.62 288.405C99.62 287.788 100.762 287.48 102.045 287.48ZM128.266 287.48C129.332 287.48 130.274 287.697 131.091 288.13C131.924 288.547 132.574 289.197 133.041 290.08C133.524 290.947 133.766 292.063 133.766 293.43V301.13H129.866V294.03C129.866 292.947 129.641 292.147 129.191 291.63C128.741 291.113 128.107 290.855 127.291 290.855C126.724 290.855 126.216 290.988 125.766 291.255C125.316 291.505 124.966 291.888 124.716 292.405C124.466 292.922 124.341 293.58 124.341 294.38V301.13H120.441V294.03C120.441 292.947 120.216 292.147 119.766 291.63C119.332 291.113 118.707 290.855 117.891 290.855C117.324 290.855 116.816 290.988 116.366 291.255C115.916 291.505 115.566 291.888 115.316 292.405C115.066 292.922 114.941 293.58 114.941 294.38V301.13H111.041V287.68H114.766V291.355L114.066 290.28C114.532 289.363 115.191 288.672 116.041 288.205C116.907 287.722 117.891 287.48 118.991 287.48C120.224 287.48 121.299 287.797 122.216 288.43C123.149 289.047 123.766 289.997 124.066 291.28L122.691 290.905C123.141 289.855 123.857 289.022 124.841 288.405C125.841 287.788 126.982 287.48 128.266 287.48ZM138.717 306.18C138.017 306.18 137.326 306.072 136.642 305.855C135.959 305.638 135.401 305.338 134.967 304.955L136.392 302.18C136.692 302.447 137.034 302.655 137.417 302.805C137.817 302.955 138.209 303.03 138.592 303.03C139.142 303.03 139.576 302.897 139.892 302.63C140.226 302.38 140.526 301.955 140.792 301.355L141.492 299.705L141.792 299.28L146.617 287.68H150.367L144.292 301.955C143.859 303.038 143.359 303.888 142.792 304.505C142.242 305.122 141.626 305.555 140.942 305.805C140.276 306.055 139.534 306.18 138.717 306.18ZM141.017 301.655L135.017 287.68H139.042L143.692 298.93L141.017 301.655Z" fill="#191717"/>
<rect width="200" height="268.161" rx="35" fill="url(#paint0_linear_10367_406)" fill-opacity="0.8"/>
<path d="M57.8683 82.5887C57.9672 81.5495 58.4641 80.5887 59.2552 79.9069C60.0463 79.225 61.0705 78.8748 62.1138 78.9294C63.1572 78.9839 64.1392 79.439 64.8547 80.1996C65.5703 80.9603 65.964 81.9676 65.9539 83.0114V109.97C65.9539 110.884 66.3173 111.761 66.9642 112.407C67.6111 113.053 68.4885 113.416 69.4033 113.416C70.3182 113.416 71.1956 113.053 71.8425 112.407C72.4894 111.761 72.8528 110.884 72.8528 109.97V82.4049C72.8528 81.4909 73.2162 80.6143 73.8631 79.968C74.51 79.3218 75.3874 78.9587 76.3023 78.9587C77.2171 78.9587 78.0945 79.3218 78.7414 79.968C79.3883 80.6143 79.7517 81.4909 79.7517 82.4049V109.97C79.7517 110.884 80.1152 111.761 80.7621 112.407C81.409 113.053 82.2863 113.416 83.2012 113.416C84.116 113.416 84.9934 113.053 85.6403 112.407C86.2872 111.761 86.6507 110.884 86.6507 109.97V83.0114C86.6626 81.9814 87.0666 80.9946 87.7807 80.2515C88.4948 79.5084 89.4653 79.0649 90.495 79.0111C91.5246 78.9572 92.5361 79.2971 93.324 79.9617C94.1118 80.6262 94.6167 81.5655 94.7362 82.5887C95.0858 85.9062 96.9991 104.576 96.9991 113.421C96.9991 119.569 94.3085 125.092 90.0541 128.878C88.518 130.238 87.8005 131.64 87.8005 132.816V136.157L87.8051 136.373C87.9982 139.125 90.1001 169.856 90.1001 175.453C90.1001 177.263 89.7432 179.056 89.0498 180.728C88.3564 182.401 87.3401 183.92 86.0588 185.2C84.7776 186.48 83.2565 187.496 81.5825 188.188C79.9084 188.881 78.1142 189.238 76.3023 189.238C74.4903 189.238 72.6961 188.881 71.022 188.188C69.348 187.496 67.8269 186.48 66.5457 185.2C65.2645 183.92 64.2481 182.401 63.5547 180.728C62.8613 179.056 62.5044 177.263 62.5044 175.453C62.5044 169.856 64.6109 139.125 64.7994 136.373L64.804 136.157V132.816C64.804 131.644 64.0866 130.243 62.5504 128.878C60.3658 126.938 58.6175 124.557 57.4204 121.893C56.2234 119.229 55.6048 116.341 55.6055 113.421C55.6055 104.576 57.5188 85.9062 57.8683 82.5887ZM119.789 134.098L119.641 136.653C119.425 140.407 119.135 145.475 118.85 150.723C118.28 161.14 117.696 172.475 117.696 175.453C117.696 177.263 118.053 179.056 118.746 180.728C119.44 182.401 120.456 183.92 121.737 185.2C123.018 186.48 124.539 187.496 126.213 188.188C127.888 188.881 129.682 189.238 131.494 189.238C133.306 189.238 135.1 188.881 136.774 188.188C138.448 187.496 139.969 186.48 141.25 185.2C142.532 183.92 143.548 182.401 144.241 180.728C144.935 179.056 145.292 177.263 145.292 175.453C145.292 172.14 144.565 159.49 143.939 148.549L143.921 148.246C143.42 139.52 142.992 132.03 142.992 130.652V82.4049C142.992 81.4909 142.629 80.6143 141.982 79.968C141.335 79.3218 140.457 78.9587 139.542 78.9587H137.243C129.009 78.9587 121.113 82.2264 115.291 88.043C109.468 93.8597 106.198 101.749 106.198 109.975V126.057C106.198 130.496 109.803 134.098 114.246 134.098H119.789Z" fill="#F9F9F9"/>
<defs>
<linearGradient id="paint0_linear_10367_406" x1="100" y1="0" x2="100" y2="268.161" gradientUnits="userSpaceOnUse">
<stop stop-color="#FF7700"/>
<stop offset="0.875" stop-color="#FFCC00"/>
</linearGradient>
</defs>
</svg>
